[ConversionWorker] Logging FFmpeg output to: ffmpeg_logs\ffmpeg_conversion_引入02_wav_20250525_165258.log\n[ConversionWorker] Getting duration with command: ffprobe -v error -show_entries format=duration -of default=noprint_wrappers=1:nokey=1 Z:\Story\引入\引入02.wav\n[ConversionWorker] Duration for 引入02.wav: 12299048 ms\n[ConversionWorker] Starting FFmpeg for 引入02.wav: ffmpeg -i Z:\Story\引入\引入02.wav -b:a 256k -vn -y -loglevel error -stats -progress pipe:1 Z:\Story\引入\引入02.mp3\n[ConversionWorker] FFmpeg process started. PID: 29944\n[STDOUT RAW] bitrate= 154.0kbits/s\n[STDOUT RAW] total_size=86444\n[STDOUT RAW] out_time_us=4489958\n[STDOUT RAW] out_time_ms=4489958\n[STDOUT RAW] out_time=00:00:04.489958\n[STDOUT RAW] dup_frames=0\n[STDOUT RAW] drop_frames=0\n[STDOUT RAW] speed=8.66x\n[STDOUT RAW] progress=continue\n[STDOUT RAW] bitrate= 157.4kbits/s\n[STDERR RAW] size=      84KiB time=00:00:04.48 bitrate= 154.0kbits/s speed=8.66x\n[STDOUT RAW] total_size=171404\n[STDOUT RAW] out_time_us=8713958\n[STDOUT RAW] out_time_ms=8713958\n[STDOUT RAW] out_time=00:00:08.713958\n[STDOUT RAW] dup_frames=0\n[STDOUT RAW] drop_frames=0\n[STDOUT RAW] speed=8.47x\n[STDOUT RAW] progress=continue\n[STDERR RAW] size=     167KiB time=00:00:08.71 bitrate= 157.4kbits/s speed=8.47x\n[STDOUT RAW] bitrate= 157.9kbits/s\n[STDOUT RAW] total_size=256364\n[STDOUT RAW] out_time_us=12985958\n[STDOUT RAW] out_time_ms=12985958\n[STDOUT RAW] out_time=00:00:12.985958\n[STDOUT RAW] dup_frames=0\n[STDOUT RAW] drop_frames=0\n[STDOUT RAW] speed=8.44x\n[STDOUT RAW] progress=continue\n[STDERR RAW] size=     250KiB time=00:00:12.98 bitrate= 157.9kbits/s speed=8.44x\n[STDOUT RAW] bitrate= 142.1kbits/s\n[STDOUT RAW] total_size=2097152\n[STDOUT RAW] out_time_us=118105958\n[STDOUT RAW] out_time_ms=118105958\n[STDOUT RAW] out_time=00:01:58.105958\n[STDOUT RAW] dup_frames=0\n[STDOUT RAW] drop_frames=0\n[STDOUT RAW] speed=57.3x\n[STDOUT RAW] progress=continue\n[STDERR RAW] size=    2048KiB time=00:01:58.10 bitrate= 142.1kbits/s speed=57.3x\n[STDOUT RAW] bitrate= 150.5kbits/s\n[STDOUT RAW] total_size=4194304\n[STDOUT RAW] out_time_us=222961958\n[STDOUT RAW] out_time_ms=222961958\n[STDOUT RAW] out_time=00:03:42.961958\n[STDOUT RAW] dup_frames=0\n[STDOUT RAW] drop_frames=0\n[STDOUT RAW] speed=86.5x\n[STDOUT RAW] progress=continue\n[STDERR RAW] size=    4096KiB time=00:03:42.96 bitrate= 150.5kbits/s speed=86.5x\n[STDOUT RAW] bitrate= 155.4kbits/s\n[STDOUT RAW] total_size=6291456\n[STDOUT RAW] out_time_us=323809958\n[STDOUT RAW] out_time_ms=323809958\n[STDOUT RAW] out_time=00:05:23.809958\n[STDOUT RAW] dup_frames=0\n[STDOUT RAW] drop_frames=0\n[STDOUT RAW] speed= 105x\n[STDOUT RAW] progress=continue\n[STDERR RAW] size=    6144KiB time=00:05:23.80 bitrate= 155.4kbits/s speed= 105x\n[STDOUT RAW] bitrate= 156.6kbits/s\n[STDOUT RAW] total_size=8388608\n[STDOUT RAW] out_time_us=428401958\n[STDOUT RAW] out_time_ms=428401958\n[STDOUT RAW] out_time=00:07:08.401958\n[STDOUT RAW] dup_frames=0\n[STDOUT RAW] drop_frames=0\n[STDOUT RAW] speed= 119x\n[STDOUT RAW] progress=continue\n[STDERR RAW] size=    8192KiB time=00:07:08.40 bitrate= 156.6kbits/s speed= 119x\n[STDOUT RAW] bitrate= 158.0kbits/s\n[STDOUT RAW] total_size=10485760\n[STDOUT RAW] out_time_us=530905958\n[STDOUT RAW] out_time_ms=530905958\n[STDOUT RAW] out_time=00:08:50.905958\n[STDOUT RAW] dup_frames=0\n[STDOUT RAW] drop_frames=0\n[STDOUT RAW] speed= 129x\n[STDOUT RAW] progress=continue\n[STDERR RAW] size=   10240KiB time=00:08:50.90 bitrate= 158.0kbits/s speed= 129x\n[STDOUT RAW] bitrate= 159.1kbits/s\n[STDOUT RAW] total_size=12582912\n[STDOUT RAW] out_time_us=632521958\n[STDOUT RAW] out_time_ms=632521958\n[STDOUT RAW] out_time=00:10:32.521958\n[STDOUT RAW] dup_frames=0\n[STDOUT RAW] drop_frames=0\n[STDOUT RAW] speed= 136x\n[STDOUT RAW] progress=continue\n[STDERR RAW] size=   12288KiB time=00:10:32.52 bitrate= 159.1kbits/s speed= 136x\n[STDOUT RAW] bitrate= 157.1kbits/s\n[STDOUT RAW] total_size=14417920\n[STDOUT RAW] out_time_us=734137958\n[STDOUT RAW] out_time_ms=734137958\n[STDOUT RAW] out_time=00:12:14.137958\n[STDOUT RAW] dup_frames=0\n[STDOUT RAW] drop_frames=0\n[STDOUT RAW] speed= 143x\n[STDOUT RAW] progress=continue\n[STDERR RAW] size=   14080KiB time=00:12:14.13 bitrate= 157.1kbits/s speed= 143x\n[STDOUT RAW] bitrate= 158.4kbits/s\n[STDOUT RAW] total_size=16515072\n[STDOUT RAW] out_time_us=834193958\n[STDOUT RAW] out_time_ms=834193958\n[STDOUT RAW] out_time=00:13:54.193958\n[STDOUT RAW] dup_frames=0\n[STDOUT RAW] drop_frames=0\n[STDOUT RAW] speed= 147x\n[STDOUT RAW] progress=continue\n[STDERR RAW] size=   16128KiB time=00:13:54.19 bitrate= 158.4kbits/s speed= 147x\n[STDOUT RAW] bitrate= 159.6kbits/s\n[STDOUT RAW] total_size=18612224\n[STDOUT RAW] out_time_us=933217958\n[STDOUT RAW] out_time_ms=933217958\n[STDOUT RAW] out_time=00:15:33.217958\n[STDOUT RAW] dup_frames=0\n[STDOUT RAW] drop_frames=0\n[STDOUT RAW] speed= 151x\n[STDOUT RAW] progress=continue\n[STDERR RAW] size=   18176KiB time=00:15:33.21 bitrate= 159.6kbits/s speed= 151x\n[STDOUT RAW] bitrate= 158.0kbits/s\n[STDOUT RAW] total_size=20447232\n[STDOUT RAW] out_time_us=1035601958\n[STDOUT RAW] out_time_ms=1035601958\n[STDOUT RAW] out_time=00:17:15.601958\n[STDOUT RAW] dup_frames=0\n[STDOUT RAW] drop_frames=0\n[STDOUT RAW] speed= 155x\n[STDOUT RAW] progress=continue\n[STDERR RAW] size=   19968KiB time=00:17:15.60 bitrate= 158.0kbits/s speed= 155x\n[STDOUT RAW] bitrate= 158.9kbits/s\n[STDOUT RAW] total_size=22544384\n[STDOUT RAW] out_time_us=1134937958\n[STDOUT RAW] out_time_ms=1134937958\n[STDOUT RAW] out_time=00:18:54.937958\n[STDOUT RAW] dup_frames=0\n[STDOUT RAW] drop_frames=0\n[STDOUT RAW] speed= 157x\n[STDOUT RAW] progress=continue\n[STDERR RAW] size=   22016KiB time=00:18:54.93 bitrate= 158.9kbits/s speed= 157x\n[STDOUT RAW] bitrate= 158.3kbits/s\n[STDOUT RAW] total_size=24379392\n[STDOUT RAW] out_time_us=1232209958\n[STDOUT RAW] out_time_ms=1232209958\n[STDOUT RAW] out_time=00:20:32.209958\n[STDOUT RAW] dup_frames=0\n[STDOUT RAW] drop_frames=0\n[STDOUT RAW] speed= 159x\n[STDOUT RAW] progress=continue\n[STDERR RAW] size=   23808KiB time=00:20:32.20 bitrate= 158.3kbits/s speed= 159x\n[STDOUT RAW] bitrate= 158.8kbits/s\n[STDOUT RAW] total_size=26476544\n[STDOUT RAW] out_time_us=1333849958\n[STDOUT RAW] out_time_ms=1333849958\n[STDOUT RAW] out_time=00:22:13.849958\n[STDOUT RAW] dup_frames=0\n[STDOUT RAW] drop_frames=0\n[STDOUT RAW] speed= 162x\n[STDOUT RAW] progress=continue\n[STDERR RAW] size=   25856KiB time=00:22:13.84 bitrate= 158.8kbits/s speed= 162x\n[STDOUT RAW] bitrate= 158.8kbits/s\n[STDOUT RAW] total_size=28573696\n[STDOUT RAW] out_time_us=1439905958\n[STDOUT RAW] out_time_ms=1439905958\n[STDOUT RAW] out_time=00:23:59.905958\n[STDOUT RAW] dup_frames=0\n[STDOUT RAW] drop_frames=0\n[STDOUT RAW] speed= 164x\n[STDOUT RAW] progress=continue\n[STDOUT RAW] bitrate= 159.8kbits/s\n[STDERR RAW] size=   27904KiB time=00:23:59.90 bitrate= 158.8kbits/s speed= 164x\n[STDOUT RAW] total_size=30670848\n[STDOUT RAW] out_time_us=1535833958\n[STDOUT RAW] out_time_ms=1535833958\n[STDOUT RAW] out_time=00:25:35.833958\n[STDOUT RAW] dup_frames=0\n[STDOUT RAW] drop_frames=0\n[STDOUT RAW] speed= 165x\n[STDOUT RAW] progress=continue\n[STDERR RAW] size=   29952KiB time=00:25:35.83 bitrate= 159.8kbits/s speed= 165x\n[STDOUT RAW] bitrate= 159.5kbits/s\n[STDOUT RAW] total_size=32505856\n[STDOUT RAW] out_time_us=1630753958\n[STDOUT RAW] out_time_ms=1630753958\n[STDOUT RAW] out_time=00:27:10.753958\n[STDOUT RAW] dup_frames=0\n[STDOUT RAW] drop_frames=0\n[STDOUT RAW] speed= 166x\n[STDOUT RAW] progress=continue\n[STDERR RAW] size=   31744KiB time=00:27:10.75 bitrate= 159.5kbits/s speed= 166x\n[STDOUT RAW] bitrate= 159.8kbits/s\n[STDOUT RAW] total_size=34603008\n[STDOUT RAW] out_time_us=1732105958\n[STDOUT RAW] out_time_ms=1732105958\n[STDOUT RAW] out_time=00:28:52.105958\n[STDOUT RAW] dup_frames=0\n[STDOUT RAW] drop_frames=0\n[STDOUT RAW] speed= 168x\n[STDOUT RAW] progress=continue\n[STDERR RAW] size=   33792KiB time=00:28:52.10 bitrate= 159.8kbits/s speed= 168x\n[STDOUT RAW] bitrate= 159.3kbits/s\n[STDOUT RAW] total_size=36438016\n[STDOUT RAW] out_time_us=1829473958\n[STDOUT RAW] out_time_ms=1829473958\n[STDOUT RAW] out_time=00:30:29.473958\n[STDOUT RAW] dup_frames=0\n[STDOUT RAW] drop_frames=0\n[STDOUT RAW] speed= 169x\n[STDOUT RAW] progress=continue\n[STDERR RAW] size=   35584KiB time=00:30:29.47 bitrate= 159.3kbits/s speed= 169x\n[STDOUT RAW] bitrate= 159.8kbits/s\n[STDOUT RAW] total_size=38535168\n[STDOUT RAW] out_time_us=1928737958\n[STDOUT RAW] out_time_ms=1928737958\n[STDOUT RAW] out_time=00:32:08.737958\n[STDOUT RAW] dup_frames=0\n[STDOUT RAW] drop_frames=0\n[STDOUT RAW] speed= 170x\n[STDOUT RAW] progress=continue\n[STDERR RAW] size=   37632KiB time=00:32:08.73 bitrate= 159.8kbits/s speed= 170x\n[STDOUT RAW] bitrate= 159.4kbits/s\n[STDOUT RAW] total_size=40370176\n[STDOUT RAW] out_time_us=2026657958\n[STDOUT RAW] out_time_ms=2026657958\n[STDOUT RAW] out_time=00:33:46.657958\n[STDOUT RAW] dup_frames=0\n[STDOUT RAW] drop_frames=0\n[STDOUT RAW] speed= 171x\n[STDOUT RAW] progress=continue\n[STDERR RAW] size=   39424KiB time=00:33:46.65 bitrate= 159.4kbits/s speed= 171x\n[STDOUT RAW] bitrate= 159.9kbits/s\n[STDOUT RAW] total_size=42467328\n[STDOUT RAW] out_time_us=2124361958\n[STDOUT RAW] out_time_ms=2124361958\n[STDOUT RAW] out_time=00:35:24.361958\n[STDOUT RAW] dup_frames=0\n[STDOUT RAW] drop_frames=0\n[STDOUT RAW] speed= 172x\n[STDOUT RAW] progress=continue\n[STDERR RAW] size=   41472KiB time=00:35:24.36 bitrate= 159.9kbits/s speed= 172x\n[STDOUT RAW] bitrate= 159.5kbits/s\n[STDOUT RAW] total_size=44302336\n[STDOUT RAW] out_time_us=2221873958\n[STDOUT RAW] out_time_ms=2221873958\n[STDOUT RAW] out_time=00:37:01.873958\n[STDOUT RAW] dup_frames=0\n[STDOUT RAW] drop_frames=0\n[STDOUT RAW] speed= 173x\n[STDOUT RAW] progress=continue\n[STDERR RAW] size=   43264KiB time=00:37:01.87 bitrate= 159.5kbits/s speed= 173x\n[STDOUT RAW] bitrate= 159.7kbits/s\n[STDOUT RAW] total_size=46399488\n[STDOUT RAW] out_time_us=2324425958\n[STDOUT RAW] out_time_ms=2324425958\n[STDOUT RAW] out_time=00:38:44.425958\n[STDOUT RAW] dup_frames=0\n[STDOUT RAW] drop_frames=0\n[STDOUT RAW] speed= 173x\n[STDOUT RAW] progress=continue\n[STDERR RAW] size=   45312KiB time=00:38:44.42 bitrate= 159.7kbits/s speed= 173x\n[STDOUT RAW] bitrate= 159.6kbits/s\n[STDOUT RAW] total_size=48234496\n[STDOUT RAW] out_time_us=2417017958\n[STDOUT RAW] out_time_ms=2417017958\n[STDOUT RAW] out_time=00:40:17.017958\n[STDOUT RAW] dup_frames=0\n[STDOUT RAW] drop_frames=0\n[STDOUT RAW] speed= 174x\n[STDOUT RAW] progress=continue\n[STDERR RAW] size=   47104KiB time=00:40:17.01 bitrate= 159.6kbits/s speed= 174x\n[STDOUT RAW] bitrate= 159.6kbits/s\n[STDOUT RAW] total_size=50069504\n[STDOUT RAW] out_time_us=2509801958\n[STDOUT RAW] out_time_ms=2509801958\n[STDOUT RAW] out_time=00:41:49.801958\n[STDOUT RAW] dup_frames=0\n[STDOUT RAW] drop_frames=0\n[STDOUT RAW] speed= 174x\n[STDOUT RAW] progress=continue\n[STDERR RAW] size=   48896KiB time=00:41:49.80 bitrate= 159.6kbits/s speed= 174x\n[STDOUT RAW] bitrate= 159.2kbits/s\n[STDOUT RAW] total_size=51904512\n[STDOUT RAW] out_time_us=2607817958\n[STDOUT RAW] out_time_ms=2607817958\n[STDOUT RAW] out_time=00:43:27.817958\n[STDOUT RAW] dup_frames=0\n[STDOUT RAW] drop_frames=0\n[STDOUT RAW] speed= 174x\n[STDOUT RAW] progress=continue\n[STDERR RAW] size=   50688KiB time=00:43:27.81 bitrate= 159.2kbits/s speed= 174x\n[STDOUT RAW] bitrate= 159.7kbits/s\n[STDOUT RAW] total_size=54001664\n[STDOUT RAW] out_time_us=2705713958\n[STDOUT RAW] out_time_ms=2705713958\n[STDOUT RAW] out_time=00:45:05.713958\n[STDOUT RAW] dup_frames=0\n[STDOUT RAW] drop_frames=0\n[STDOUT RAW] speed= 175x\n[STDOUT RAW] progress=continue\n[STDERR RAW] size=   52736KiB time=00:45:05.71 bitrate= 159.7kbits/s speed= 175x\n[STDOUT RAW] bitrate= 159.6kbits/s\n[STDOUT RAW] total_size=55836672\n[STDOUT RAW] out_time_us=2799049958\n[STDOUT RAW] out_time_ms=2799049958\n[STDOUT RAW] out_time=00:46:39.049958\n[STDOUT RAW] dup_frames=0\n[STDOUT RAW] drop_frames=0\n[STDOUT RAW] speed= 175x\n[STDOUT RAW] progress=continue\n[STDERR RAW] size=   54528KiB time=00:46:39.04 bitrate= 159.6kbits/s speed= 175x\n[STDOUT RAW] bitrate= 159.3kbits/s\n[STDOUT RAW] total_size=57671680\n[STDOUT RAW] out_time_us=2895745958\n[STDOUT RAW] out_time_ms=2895745958\n[STDOUT RAW] out_time=00:48:15.745958\n[STDOUT RAW] dup_frames=0\n[STDOUT RAW] drop_frames=0\n[STDOUT RAW] speed= 176x\n[STDOUT RAW] progress=continue\n[STDERR RAW] size=   56320KiB time=00:48:15.74 bitrate= 159.3kbits/s speed= 176x\n[STDOUT RAW] bitrate= 159.3kbits/s\n[STDOUT RAW] total_size=59506688\n[STDOUT RAW] out_time_us=2987617958\n[STDOUT RAW] out_time_ms=2987617958\n[STDOUT RAW] out_time=00:49:47.617958\n[STDOUT RAW] dup_frames=0\n[STDOUT RAW] drop_frames=0\n[STDOUT RAW] speed= 176x\n[STDOUT RAW] progress=continue\n[STDERR RAW] size=   58112KiB time=00:49:47.61 bitrate= 159.3kbits/s speed= 176x\n[STDOUT RAW] bitrate= 159.4kbits/s\n[STDOUT RAW] total_size=61603840\n[STDOUT RAW] out_time_us=3091081958\n[STDOUT RAW] out_time_ms=3091081958\n[STDOUT RAW] out_time=00:51:31.081958\n[STDOUT RAW] dup_frames=0\n[STDOUT RAW] drop_frames=0\n[STDOUT RAW] speed= 176x\n[STDOUT RAW] progress=continue\n[STDERR RAW] size=   60160KiB time=00:51:31.08 bitrate= 159.4kbits/s speed= 176x\n[STDOUT RAW] bitrate= 159.4kbits/s\n[STDOUT RAW] total_size=63438848\n[STDOUT RAW] out_time_us=3183361958\n[STDOUT RAW] out_time_ms=3183361958\n[STDOUT RAW] out_time=00:53:03.361958\n[STDOUT RAW] dup_frames=0\n[STDOUT RAW] drop_frames=0\n[STDOUT RAW] speed= 176x\n[STDOUT RAW] progress=continue\n[STDERR RAW] size=   61952KiB time=00:53:03.36 bitrate= 159.4kbits/s speed= 176x\n[STDOUT RAW] bitrate= 159.6kbits/s\n[STDOUT RAW] total_size=65536000\n[STDOUT RAW] out_time_us=3284017958\n[STDOUT RAW] out_time_ms=3284017958\n[STDOUT RAW] out_time=00:54:44.017958\n[STDOUT RAW] dup_frames=0\n[STDOUT RAW] drop_frames=0\n[STDOUT RAW] speed= 177x\n[STDOUT RAW] progress=continue\n[STDERR RAW] size=   64000KiB time=00:54:44.01 bitrate= 159.6kbits/s speed= 177x\n[STDOUT RAW] bitrate= 159.6kbits/s\n[STDOUT RAW] total_size=67371008\n[STDOUT RAW] out_time_us=3377113958\n[STDOUT RAW] out_time_ms=3377113958\n[STDOUT RAW] out_time=00:56:17.113958\n[STDOUT RAW] dup_frames=0\n[STDOUT RAW] drop_frames=0\n[STDOUT RAW] speed= 177x\n[STDOUT RAW] progress=continue\n[STDERR RAW] size=   65792KiB time=00:56:17.11 bitrate= 159.6kbits/s speed= 177x\n[STDOUT RAW] bitrate= 159.4kbits/s\n[STDOUT RAW] total_size=69206016\n[STDOUT RAW] out_time_us=3473545958\n[STDOUT RAW] out_time_ms=3473545958\n[STDOUT RAW] out_time=00:57:53.545958\n[STDOUT RAW] dup_frames=0\n[STDOUT RAW] drop_frames=0\n[STDOUT RAW] speed= 177x\n[STDOUT RAW] progress=continue\n[STDERR RAW] size=   67584KiB time=00:57:53.54 bitrate= 159.4kbits/s speed= 177x\n[STDOUT RAW] bitrate= 159.8kbits/s\n[STDOUT RAW] total_size=71303168\n[STDOUT RAW] out_time_us=3570049958\n[STDOUT RAW] out_time_ms=3570049958\n[STDOUT RAW] out_time=00:59:30.049958\n[STDOUT RAW] dup_frames=0\n[STDOUT RAW] drop_frames=0\n[STDOUT RAW] speed= 178x\n[STDOUT RAW] progress=continue\n[STDERR RAW] size=   69632KiB time=00:59:30.04 bitrate= 159.8kbits/s speed= 178x\n[STDOUT RAW] bitrate= 159.5kbits/s\n[STDOUT RAW] total_size=72876032\n[STDOUT RAW] out_time_us=3654673958\n[STDOUT RAW] out_time_ms=3654673958\n[STDOUT RAW] out_time=01:00:54.673958\n[STDOUT RAW] dup_frames=0\n[STDOUT RAW] drop_frames=0\n[STDOUT RAW] speed= 177x\n[STDOUT RAW] progress=continue\n[STDERR RAW] size=   71168KiB time=01:00:54.67 bitrate= 159.5kbits/s speed= 177x\n[STDOUT RAW] bitrate= 159.8kbits/s\n[STDOUT RAW] total_size=74711040\n[STDOUT RAW] out_time_us=3739105958\n[STDOUT RAW] out_time_ms=3739105958\n[STDOUT RAW] out_time=01:02:19.105958\n[STDOUT RAW] dup_frames=0\n[STDOUT RAW] drop_frames=0\n[STDOUT RAW] speed= 177x\n[STDOUT RAW] progress=continue\n[STDOUT RAW] bitrate= 159.8kbits/s\n[STDOUT RAW] total_size=76546048\n[STDOUT RAW] out_time_us=3831721958\n[STDOUT RAW] out_time_ms=3831721958\n[STDOUT RAW] out_time=01:03:51.721958\n[STDERR RAW] size=   72960KiB time=01:02:19.10 bitrate= 159.8kbits/s speed= 177x\n[STDOUT RAW] dup_frames=0\n[STDOUT RAW] drop_frames=0\n[STDOUT RAW] speed= 177x\n[STDOUT RAW] progress=continue\n[STDERR RAW] size=   74752KiB time=01:03:51.72 bitrate= 159.8kbits/s speed= 177x\n[STDOUT RAW] bitrate= 159.9kbits/s\n[STDOUT RAW] total_size=78381056\n[STDOUT RAW] out_time_us=3920281958\n[STDOUT RAW] out_time_ms=3920281958\n[STDOUT RAW] out_time=01:05:20.281958\n[STDOUT RAW] dup_frames=0\n[STDOUT RAW] drop_frames=0\n[STDOUT RAW] speed= 177x\n[STDOUT RAW] progress=continue\n[STDERR RAW] size=   76544KiB time=01:05:20.28 bitrate= 159.9kbits/s speed= 177x\n[STDOUT RAW] bitrate= 159.5kbits/s\n[STDOUT RAW] total_size=79953920\n[STDOUT RAW] out_time_us=4010929958\n[STDOUT RAW] out_time_ms=4010929958\n[STDOUT RAW] out_time=01:06:50.929958\n[STDOUT RAW] dup_frames=0\n[STDOUT RAW] drop_frames=0\n[STDOUT RAW] speed= 177x\n[STDOUT RAW] progress=continue\n[STDERR RAW] size=   78080KiB time=01:06:50.92 bitrate= 159.5kbits/s speed= 177x\n[STDOUT RAW] bitrate= 159.6kbits/s\n[STDOUT RAW] total_size=81788928\n[STDOUT RAW] out_time_us=4099873958\n[STDOUT RAW] out_time_ms=4099873958\n[STDOUT RAW] out_time=01:08:19.873958\n[STDOUT RAW] dup_frames=0\n[STDOUT RAW] drop_frames=0\n[STDOUT RAW] speed= 177x\n[STDOUT RAW] progress=continue\n[STDERR RAW] size=   79872KiB time=01:08:19.87 bitrate= 159.6kbits/s speed= 177x\n[STDOUT RAW] bitrate= 159.9kbits/s\n[STDOUT RAW] total_size=83886080\n[STDOUT RAW] out_time_us=4195873958\n[STDOUT RAW] out_time_ms=4195873958\n[STDOUT RAW] out_time=01:09:55.873958\n[STDOUT RAW] dup_frames=0\n[STDOUT RAW] drop_frames=0\n[STDOUT RAW] speed= 177x\n[STDOUT RAW] progress=continue\n[STDERR RAW] size=   81920KiB time=01:09:55.87 bitrate= 159.9kbits/s speed= 177x\n[STDOUT RAW] bitrate= 159.6kbits/s\n[STDOUT RAW] total_size=85458944\n[STDOUT RAW] out_time_us=4284457958\n[STDOUT RAW] out_time_ms=4284457958\n[STDOUT RAW] out_time=01:11:24.457958\n[STDOUT RAW] dup_frames=0\n[STDOUT RAW] drop_frames=0\n[STDOUT RAW] speed= 177x\n[STDOUT RAW] progress=continue\n[STDERR RAW] size=   83456KiB time=01:11:24.45 bitrate= 159.6kbits/s speed= 177x\n[STDOUT RAW] bitrate= 159.7kbits/s\n[STDOUT RAW] total_size=87293952\n[STDOUT RAW] out_time_us=4373929958\n[STDOUT RAW] out_time_ms=4373929958\n[STDOUT RAW] out_time=01:12:53.929958\n[STDOUT RAW] dup_frames=0\n[STDOUT RAW] drop_frames=0\n[STDOUT RAW] speed= 177x\n[STDOUT RAW] progress=continue\n[STDERR RAW] size=   85248KiB time=01:12:53.92 bitrate= 159.7kbits/s speed= 177x\n[STDOUT RAW] bitrate= 159.7kbits/s\n[STDOUT RAW] total_size=89128960\n[STDOUT RAW] out_time_us=4463593958\n[STDOUT RAW] out_time_ms=4463593958\n[STDOUT RAW] out_time=01:14:23.593958\n[STDOUT RAW] dup_frames=0\n[STDOUT RAW] drop_frames=0\n[STDOUT RAW] speed= 177x\n[STDOUT RAW] progress=continue\n[STDERR RAW] size=   87040KiB time=01:14:23.59 bitrate= 159.7kbits/s speed= 177x\n[STDOUT RAW] bitrate= 159.8kbits/s\n[STDOUT RAW] total_size=90963968\n[STDOUT RAW] out_time_us=4553761958\n[STDOUT RAW] out_time_ms=4553761958\n[STDOUT RAW] out_time=01:15:53.761958\n[STDOUT RAW] dup_frames=0\n[STDOUT RAW] drop_frames=0\n[STDOUT RAW] speed= 177x\n[STDOUT RAW] progress=continue\n[STDERR RAW] size=   88832KiB time=01:15:53.76 bitrate= 159.8kbits/s speed= 177x\n[STDOUT RAW] bitrate= 160.0kbits/s\n[STDOUT RAW] total_size=93061120\n[STDOUT RAW] out_time_us=4654273958\n[STDOUT RAW] out_time_ms=4654273958\n[STDOUT RAW] out_time=01:17:34.273958\n[STDOUT RAW] dup_frames=0\n[STDOUT RAW] drop_frames=0\n[STDOUT RAW] speed= 177x\n[STDOUT RAW] progress=continue\n[STDERR RAW] size=   90880KiB time=01:17:34.27 bitrate= 160.0kbits/s speed= 177x\n[STDOUT RAW] bitrate= 159.8kbits/s\n[STDOUT RAW] total_size=94896128\n[STDOUT RAW] out_time_us=4751737958\n[STDOUT RAW] out_time_ms=4751737958\n[STDOUT RAW] out_time=01:19:11.737958\n[STDOUT RAW] dup_frames=0\n[STDOUT RAW] drop_frames=0\n[STDOUT RAW] speed= 177x\n[STDOUT RAW] progress=continue\n[STDERR RAW] size=   92672KiB time=01:19:11.73 bitrate= 159.8kbits/s speed= 177x\n[STDOUT RAW] bitrate= 159.6kbits/s\n[STDOUT RAW] total_size=96731136\n[STDOUT RAW] out_time_us=4849801958\n[STDOUT RAW] out_time_ms=4849801958\n[STDOUT RAW] out_time=01:20:49.801958\n[STDOUT RAW] dup_frames=0\n[STDOUT RAW] drop_frames=0\n[STDOUT RAW] speed= 177x\n[STDOUT RAW] progress=continue\n[STDERR RAW] size=   94464KiB time=01:20:49.80 bitrate= 159.6kbits/s speed= 177x\n[STDOUT RAW] bitrate= 159.9kbits/s\n[STDOUT RAW] total_size=98828288\n[STDOUT RAW] out_time_us=4945561958\n[STDOUT RAW] out_time_ms=4945561958\n[STDOUT RAW] out_time=01:22:25.561958\n[STDOUT RAW] dup_frames=0\n[STDOUT RAW] drop_frames=0\n[STDOUT RAW] speed= 178x\n[STDOUT RAW] progress=continue\n[STDERR RAW] size=   96512KiB time=01:22:25.56 bitrate= 159.9kbits/s speed= 178x\n[STDOUT RAW] bitrate= 159.6kbits/s\n[STDOUT RAW] total_size=100663296\n[STDOUT RAW] out_time_us=5046409958\n[STDOUT RAW] out_time_ms=5046409958\n[STDOUT RAW] out_time=01:24:06.409958\n[STDOUT RAW] dup_frames=0\n[STDOUT RAW] drop_frames=0\n[STDOUT RAW] speed= 178x\n[STDOUT RAW] progress=continue\n[STDERR RAW] size=   98304KiB time=01:24:06.40 bitrate= 159.6kbits/s speed= 178x\n[STDOUT RAW] bitrate= 159.9kbits/s\n[STDOUT RAW] total_size=102760448\n[STDOUT RAW] out_time_us=5141641958\n[STDOUT RAW] out_time_ms=5141641958\n[STDOUT RAW] out_time=01:25:41.641958\n[STDOUT RAW] dup_frames=0\n[STDOUT RAW] drop_frames=0\n[STDOUT RAW] speed= 178x\n[STDOUT RAW] progress=continue\n[STDERR RAW] size=  100352KiB time=01:25:41.64 bitrate= 159.9kbits/s speed= 178x\n[STDOUT RAW] bitrate= 159.9kbits/s\n[STDOUT RAW] total_size=104857600\n[STDOUT RAW] out_time_us=5246569958\n[STDOUT RAW] out_time_ms=5246569958\n[STDOUT RAW] out_time=01:27:26.569958\n[STDOUT RAW] dup_frames=0\n[STDOUT RAW] drop_frames=0\n[STDOUT RAW] speed= 178x\n[STDOUT RAW] progress=continue\n[STDERR RAW] size=  102400KiB time=01:27:26.56 bitrate= 159.9kbits/s speed= 178x\n[STDOUT RAW] bitrate= 159.6kbits/s\n[STDOUT RAW] total_size=106692608\n[STDOUT RAW] out_time_us=5346769958\n[STDOUT RAW] out_time_ms=5346769958\n[STDOUT RAW] out_time=01:29:06.769958\n[STDOUT RAW] dup_frames=0\n[STDOUT RAW] drop_frames=0\n[STDOUT RAW] speed= 179x\n[STDOUT RAW] progress=continue\n[STDERR RAW] size=  104192KiB time=01:29:06.76 bitrate= 159.6kbits/s speed= 179x\n[STDOUT RAW] bitrate= 159.7kbits/s\n[STDOUT RAW] total_size=108789760\n[STDOUT RAW] out_time_us=5449153958\n[STDOUT RAW] out_time_ms=5449153958\n[STDOUT RAW] out_time=01:30:49.153958\n[STDOUT RAW] dup_frames=0\n[STDOUT RAW] drop_frames=0\n[STDOUT RAW] speed= 179x\n[STDOUT RAW] progress=continue\n[STDERR RAW] size=  106240KiB time=01:30:49.15 bitrate= 159.7kbits/s speed= 179x\n[STDOUT RAW] bitrate= 159.7kbits/s\n[STDOUT RAW] total_size=110624768\n[STDOUT RAW] out_time_us=5540785958\n[STDOUT RAW] out_time_ms=5540785958\n[STDOUT RAW] out_time=01:32:20.785958\n[STDOUT RAW] dup_frames=0\n[STDOUT RAW] drop_frames=0\n[STDOUT RAW] speed= 179x\n[STDOUT RAW] progress=continue\n[STDERR RAW] size=  108032KiB time=01:32:20.78 bitrate= 159.7kbits/s speed= 179x\n[STDOUT RAW] bitrate= 159.7kbits/s\n[STDOUT RAW] total_size=112459776\n[STDOUT RAW] out_time_us=5633353958\n[STDOUT RAW] out_time_ms=5633353958\n[STDOUT RAW] out_time=01:33:53.353958\n[STDOUT RAW] dup_frames=0\n[STDOUT RAW] drop_frames=0\n[STDOUT RAW] speed= 179x\n[STDOUT RAW] progress=continue\n[STDERR RAW] size=  109824KiB time=01:33:53.35 bitrate= 159.7kbits/s speed= 179x\n[STDOUT RAW] bitrate= 159.9kbits/s\n[STDOUT RAW] total_size=114556928\n[STDOUT RAW] out_time_us=5731729958\n[STDOUT RAW] out_time_ms=5731729958\n[STDOUT RAW] out_time=01:35:31.729958\n[STDOUT RAW] dup_frames=0\n[STDOUT RAW] drop_frames=0\n[STDOUT RAW] speed= 179x\n[STDOUT RAW] progress=continue\n[STDOUT RAW] bitrate= 159.8kbits/s\n[STDERR RAW] size=  111872KiB time=01:35:31.72 bitrate= 159.9kbits/s speed= 179x\n[STDOUT RAW] total_size=116391936\n[STDOUT RAW] out_time_us=5825257958\n[STDOUT RAW] out_time_ms=5825257958\n[STDOUT RAW] out_time=01:37:05.257958\n[STDOUT RAW] dup_frames=0\n[STDOUT RAW] drop_frames=0\n[STDOUT RAW] speed= 179x\n[STDOUT RAW] progress=continue\n[STDERR RAW] size=  113664KiB time=01:37:05.25 bitrate= 159.8kbits/s speed= 179x\n[STDOUT RAW] bitrate= 159.6kbits/s\n[STDOUT RAW] total_size=118226944\n[STDOUT RAW] out_time_us=5924593958\n[STDOUT RAW] out_time_ms=5924593958\n[STDOUT RAW] out_time=01:38:44.593958\n[STDOUT RAW] dup_frames=0\n[STDOUT RAW] drop_frames=0\n[STDOUT RAW] speed= 179x\n[STDOUT RAW] progress=continue\n[STDERR RAW] size=  115456KiB time=01:38:44.59 bitrate= 159.6kbits/s speed= 179x\n[STDOUT RAW] bitrate= 159.9kbits/s\n[STDOUT RAW] total_size=120324096\n[STDOUT RAW] out_time_us=6018457958\n[STDOUT RAW] out_time_ms=6018457958\n[STDOUT RAW] out_time=01:40:18.457958\n[STDOUT RAW] dup_frames=0\n[STDOUT RAW] drop_frames=0\n[STDOUT RAW] speed= 179x\n[STDOUT RAW] progress=continue\n[STDERR RAW] size=  117504KiB time=01:40:18.45 bitrate= 159.9kbits/s speed= 179x\n[STDOUT RAW] bitrate= 159.7kbits/s\n[STDOUT RAW] total_size=122159104\n[STDOUT RAW] out_time_us=6121201958\n[STDOUT RAW] out_time_ms=6121201958\n[STDOUT RAW] out_time=01:42:01.201958\n[STDOUT RAW] dup_frames=0\n[STDOUT RAW] drop_frames=0\n[STDOUT RAW] speed= 180x\n[STDOUT RAW] progress=continue\n[STDERR RAW] size=  119296KiB time=01:42:01.20 bitrate= 159.7kbits/s speed= 180x\n[STDOUT RAW] bitrate= 159.9kbits/s\n[STDOUT RAW] total_size=124256256\n[STDOUT RAW] out_time_us=6217345958\n[STDOUT RAW] out_time_ms=6217345958\n[STDOUT RAW] out_time=01:43:37.345958\n[STDOUT RAW] dup_frames=0\n[STDOUT RAW] drop_frames=0\n[STDOUT RAW] speed= 180x\n[STDOUT RAW] progress=continue\n[STDERR RAW] size=  121344KiB time=01:43:37.34 bitrate= 159.9kbits/s speed= 180x\n[STDOUT RAW] bitrate= 159.8kbits/s\n[STDOUT RAW] total_size=126091264\n[STDOUT RAW] out_time_us=6311233958\n[STDOUT RAW] out_time_ms=6311233958\n[STDOUT RAW] out_time=01:45:11.233958\n[STDOUT RAW] dup_frames=0\n[STDOUT RAW] drop_frames=0\n[STDOUT RAW] speed= 180x\n[STDOUT RAW] progress=continue\n[STDERR RAW] size=  123136KiB time=01:45:11.23 bitrate= 159.8kbits/s speed= 180x\n[STDOUT RAW] bitrate= 159.8kbits/s\n[STDOUT RAW] total_size=127926272\n[STDOUT RAW] out_time_us=6405385958\n[STDOUT RAW] out_time_ms=6405385958\n[STDOUT RAW] out_time=01:46:45.385958\n[STDOUT RAW] dup_frames=0\n[STDOUT RAW] drop_frames=0\n[STDOUT RAW] speed= 180x\n[STDOUT RAW] progress=continue\n[STDERR RAW] size=  124928KiB time=01:46:45.38 bitrate= 159.8kbits/s speed= 180x\n[STDOUT RAW] bitrate= 159.7kbits/s\n[STDOUT RAW] total_size=129761280\n[STDOUT RAW] out_time_us=6501313958\n[STDOUT RAW] out_time_ms=6501313958\n[STDOUT RAW] out_time=01:48:21.313958\n[STDOUT RAW] dup_frames=0\n[STDOUT RAW] drop_frames=0\n[STDOUT RAW] speed= 180x\n[STDOUT RAW] progress=continue\n[STDERR RAW] size=  126720KiB time=01:48:21.31 bitrate= 159.7kbits/s speed= 180x\n[STDOUT RAW] bitrate= 159.9kbits/s\n[STDOUT RAW] total_size=131596288\n[STDOUT RAW] out_time_us=6585193958\n[STDOUT RAW] out_time_ms=6585193958\n[STDOUT RAW] out_time=01:49:45.193958\n[STDOUT RAW] dup_frames=0\n[STDOUT RAW] drop_frames=0\n[STDOUT RAW] speed= 180x\n[STDOUT RAW] progress=continue\n[STDERR RAW] size=  128512KiB time=01:49:45.19 bitrate= 159.9kbits/s speed= 180x\n[STDOUT RAW] bitrate= 159.9kbits/s\n[STDOUT RAW] total_size=133431296\n[STDOUT RAW] out_time_us=6676297958\n[STDOUT RAW] out_time_ms=6676297958\n[STDOUT RAW] out_time=01:51:16.297958\n[STDOUT RAW] dup_frames=0\n[STDOUT RAW] drop_frames=0\n[STDOUT RAW] speed= 180x\n[STDOUT RAW] progress=continue\n[STDERR RAW] size=  130304KiB time=01:51:16.29 bitrate= 159.9kbits/s speed= 180x\n[STDOUT RAW] bitrate= 159.7kbits/s\n[STDOUT RAW] total_size=135004160\n[STDOUT RAW] out_time_us=6763441958\n[STDOUT RAW] out_time_ms=6763441958\n[STDOUT RAW] out_time=01:52:43.441958\n[STDOUT RAW] dup_frames=0\n[STDOUT RAW] drop_frames=0\n[STDOUT RAW] speed= 180x\n[STDOUT RAW] progress=continue\n[STDERR RAW] size=  131840KiB time=01:52:43.44 bitrate= 159.7kbits/s speed= 180x\n[STDOUT RAW] bitrate= 159.7kbits/s\n[STDOUT RAW] total_size=136839168\n[STDOUT RAW] out_time_us=6853057958\n[STDOUT RAW] out_time_ms=6853057958\n[STDOUT RAW] out_time=01:54:13.057958\n[STDOUT RAW] dup_frames=0\n[STDOUT RAW] drop_frames=0\n[STDOUT RAW] speed= 180x\n[STDOUT RAW] progress=continue\n[STDERR RAW] size=  133632KiB time=01:54:13.05 bitrate= 159.7kbits/s speed= 180x\n[STDOUT RAW] bitrate= 159.8kbits/s\n[STDOUT RAW] total_size=138936320\n[STDOUT RAW] out_time_us=6956377958\n[STDOUT RAW] out_time_ms=6956377958\n[STDOUT RAW] out_time=01:55:56.377958\n[STDOUT RAW] dup_frames=0\n[STDOUT RAW] drop_frames=0\n[STDOUT RAW] speed= 180x\n[STDOUT RAW] progress=continue\n[STDERR RAW] size=  135680KiB time=01:55:56.37 bitrate= 159.8kbits/s speed= 180x\n[STDOUT RAW] bitrate= 159.9kbits/s\n[STDOUT RAW] total_size=140771328\n[STDOUT RAW] out_time_us=7044697958\n[STDOUT RAW] out_time_ms=7044697958\n[STDOUT RAW] out_time=01:57:24.697958\n[STDOUT RAW] dup_frames=0\n[STDOUT RAW] drop_frames=0\n[STDOUT RAW] speed= 180x\n[STDOUT RAW] progress=continue\n[STDERR RAW] size=  137472KiB time=01:57:24.69 bitrate= 159.9kbits/s speed= 180x\n[STDOUT RAW] bitrate= 159.8kbits/s\n[STDOUT RAW] total_size=142606336\n[STDOUT RAW] out_time_us=7138057958\n[STDOUT RAW] out_time_ms=7138057958\n[STDOUT RAW] out_time=01:58:58.057958\n[STDOUT RAW] dup_frames=0\n[STDOUT RAW] drop_frames=0\n[STDOUT RAW] speed= 180x\n[STDOUT RAW] progress=continue\n[STDERR RAW] size=  139264KiB time=01:58:58.05 bitrate= 159.8kbits/s speed= 180x\n[STDOUT RAW] bitrate= 160.0kbits/s\n[STDOUT RAW] total_size=144441344\n[STDOUT RAW] out_time_us=7223617958\n[STDOUT RAW] out_time_ms=7223617958\n[STDOUT RAW] out_time=02:00:23.617958\n[STDOUT RAW] dup_frames=0\n[STDOUT RAW] drop_frames=0\n[STDOUT RAW] speed= 179x\n[STDOUT RAW] progress=continue\n[STDERR RAW] size=  141056KiB time=02:00:23.61 bitrate= 160.0kbits/s speed= 179x\n[STDOUT RAW] bitrate= 160.0kbits/s\n[STDOUT RAW] total_size=146276352\n[STDOUT RAW] out_time_us=7316065958\n[STDOUT RAW] out_time_ms=7316065958\n[STDOUT RAW] out_time=02:01:56.065958\n[STDOUT RAW] dup_frames=0\n[STDOUT RAW] drop_frames=0\n[STDOUT RAW] speed= 179x\n[STDOUT RAW] progress=continue\n[STDOUT RAW] bitrate= 159.8kbits/s\n[STDOUT RAW] total_size=148111360\n[STDERR RAW] size=  142848KiB time=02:01:56.06 bitrate= 160.0kbits/s speed= 179x\n[STDOUT RAW] out_time_us=7412617958\n[STDOUT RAW] out_time_ms=7412617958\n[STDOUT RAW] out_time=02:03:32.617958\n[STDOUT RAW] dup_frames=0\n[STDOUT RAW] drop_frames=0\n[STDOUT RAW] speed= 180x\n[STDOUT RAW] progress=continue\n[STDERR RAW] size=  144640KiB time=02:03:32.61 bitrate= 159.8kbits/s speed= 180x\n[STDOUT RAW] bitrate= 159.7kbits/s\n[STDOUT RAW] total_size=149684224\n[STDOUT RAW] out_time_us=7497457958\n[STDOUT RAW] out_time_ms=7497457958\n[STDOUT RAW] out_time=02:04:57.457958\n[STDOUT RAW] dup_frames=0\n[STDOUT RAW] drop_frames=0\n[STDOUT RAW] speed= 179x\n[STDOUT RAW] progress=continue\n[STDERR RAW] size=  146176KiB time=02:04:57.45 bitrate= 159.7kbits/s speed= 179x\n[STDOUT RAW] bitrate= 159.9kbits/s\n[STDOUT RAW] total_size=151781376\n[STDOUT RAW] out_time_us=7592161958\n[STDOUT RAW] out_time_ms=7592161958\n[STDOUT RAW] out_time=02:06:32.161958\n[STDOUT RAW] dup_frames=0\n[STDOUT RAW] drop_frames=0\n[STDOUT RAW] speed= 179x\n[STDOUT RAW] progress=continue\n[STDERR RAW] size=  148224KiB time=02:06:32.16 bitrate= 159.9kbits/s speed= 179x\n[STDOUT RAW] bitrate= 159.8kbits/s\n[STDOUT RAW] total_size=153354240\n[STDOUT RAW] out_time_us=7679041958\n[STDOUT RAW] out_time_ms=7679041958\n[STDOUT RAW] out_time=02:07:59.041958\n[STDOUT RAW] dup_frames=0\n[STDOUT RAW] drop_frames=0\n[STDOUT RAW] speed= 179x\n[STDOUT RAW] progress=continue\n[STDERR RAW] size=  149760KiB time=02:07:59.04 bitrate= 159.8kbits/s speed= 179x\n[STDOUT RAW] bitrate= 159.9kbits/s\n[STDOUT RAW] total_size=155189248\n[STDOUT RAW] out_time_us=7765105958\n[STDOUT RAW] out_time_ms=7765105958\n[STDOUT RAW] out_time=02:09:25.105958\n[STDOUT RAW] dup_frames=0\n[STDOUT RAW] drop_frames=0\n[STDOUT RAW] speed= 179x\n[STDOUT RAW] progress=continue\n[STDERR RAW] size=  151552KiB time=02:09:25.10 bitrate= 159.9kbits/s speed= 179x\n[STDOUT RAW] bitrate= 159.9kbits/s\n[STDOUT RAW] total_size=157024256\n[STDOUT RAW] out_time_us=7856257958\n[STDOUT RAW] out_time_ms=7856257958\n[STDOUT RAW] out_time=02:10:56.257958\n[STDOUT RAW] dup_frames=0\n[STDOUT RAW] drop_frames=0\n[STDOUT RAW] speed= 179x\n[STDOUT RAW] progress=continue\n[STDERR RAW] size=  153344KiB time=02:10:56.25 bitrate= 159.9kbits/s speed= 179x\n[STDOUT RAW] bitrate= 159.8kbits/s\n[STDOUT RAW] total_size=158597120\n[STDOUT RAW] out_time_us=7942009958\n[STDOUT RAW] out_time_ms=7942009958\n[STDOUT RAW] out_time=02:12:22.009958\n[STDOUT RAW] dup_frames=0\n[STDOUT RAW] drop_frames=0\n[STDOUT RAW] speed= 179x\n[STDOUT RAW] progress=continue\n[STDERR RAW] size=  154880KiB time=02:12:22.00 bitrate= 159.8kbits/s speed= 179x\n[STDOUT RAW] bitrate= 159.7kbits/s\n[STDOUT RAW] total_size=160432128\n[STDOUT RAW] out_time_us=8034337958\n[STDOUT RAW] out_time_ms=8034337958\n[STDOUT RAW] out_time=02:13:54.337958\n[STDOUT RAW] dup_frames=0\n[STDOUT RAW] drop_frames=0\n[STDOUT RAW] speed= 179x\n[STDOUT RAW] progress=continue\n[STDERR RAW] size=  156672KiB time=02:13:54.33 bitrate= 159.7kbits/s speed= 179x\n[STDOUT RAW] bitrate= 159.9kbits/s\n[STDOUT RAW] total_size=162267136\n[STDOUT RAW] out_time_us=8116801958\n[STDOUT RAW] out_time_ms=8116801958\n[STDOUT RAW] out_time=02:15:16.801958\n[STDOUT RAW] dup_frames=0\n[STDOUT RAW] drop_frames=0\n[STDOUT RAW] speed= 179x\n[STDOUT RAW] progress=continue\n[STDERR RAW] size=  158464KiB time=02:15:16.80 bitrate= 159.9kbits/s speed= 179x\n[STDOUT RAW] bitrate= 159.7kbits/s\n[STDOUT RAW] total_size=163840000\n[STDOUT RAW] out_time_us=8205241958\n[STDOUT RAW] out_time_ms=8205241958\n[STDOUT RAW] out_time=02:16:45.241958\n[STDOUT RAW] dup_frames=0\n[STDOUT RAW] drop_frames=0\n[STDOUT RAW] speed= 179x\n[STDOUT RAW] progress=continue\n[STDERR RAW] size=  160000KiB time=02:16:45.24 bitrate= 159.7kbits/s speed= 179x\n[STDOUT RAW] bitrate= 159.9kbits/s\n[STDOUT RAW] total_size=165675008\n[STDOUT RAW] out_time_us=8291281958\n[STDOUT RAW] out_time_ms=8291281958\n[STDOUT RAW] out_time=02:18:11.281958\n[STDOUT RAW] dup_frames=0\n[STDOUT RAW] drop_frames=0\n[STDOUT RAW] speed= 179x\n[STDOUT RAW] progress=continue\n[STDERR RAW] size=  161792KiB time=02:18:11.28 bitrate= 159.9kbits/s speed= 179x\n[STDOUT RAW] bitrate= 159.9kbits/s\n[STDOUT RAW] total_size=167510016\n[STDOUT RAW] out_time_us=8380177958\n[STDOUT RAW] out_time_ms=8380177958\n[STDOUT RAW] out_time=02:19:40.177958\n[STDOUT RAW] dup_frames=0\n[STDOUT RAW] drop_frames=0\n[STDOUT RAW] speed= 178x\n[STDOUT RAW] progress=continue\n[STDERR RAW] size=  163584KiB time=02:19:40.17 bitrate= 159.9kbits/s speed= 178x\n[STDOUT RAW] bitrate= 159.8kbits/s\n[STDOUT RAW] total_size=169345024\n[STDOUT RAW] out_time_us=8476585958\n[STDOUT RAW] out_time_ms=8476585958\n[STDOUT RAW] out_time=02:21:16.585958\n[STDOUT RAW] dup_frames=0\n[STDOUT RAW] drop_frames=0\n[STDOUT RAW] speed= 179x\n[STDOUT RAW] progress=continue\n[STDERR RAW] size=  165376KiB time=02:21:16.58 bitrate= 159.8kbits/s speed= 179x\n[STDOUT RAW] bitrate= 159.8kbits/s\n[STDOUT RAW] total_size=171180032\n[STDOUT RAW] out_time_us=8572249958\n[STDOUT RAW] out_time_ms=8572249958\n[STDOUT RAW] out_time=02:22:52.249958\n[STDOUT RAW] dup_frames=0\n[STDOUT RAW] drop_frames=0\n[STDOUT RAW] speed= 179x\n[STDOUT RAW] progress=continue\n[STDERR RAW] size=  167168KiB time=02:22:52.24 bitrate= 159.8kbits/s speed= 179x\n[STDOUT RAW] bitrate= 160.0kbits/s\n[STDOUT RAW] total_size=173015040\n[STDOUT RAW] out_time_us=8652505958\n[STDOUT RAW] out_time_ms=8652505958\n[STDOUT RAW] out_time=02:24:12.505958\n[STDOUT RAW] dup_frames=0\n[STDOUT RAW] drop_frames=0\n[STDOUT RAW] speed= 178x\n[STDOUT RAW] progress=continue\n[STDERR RAW] size=  168960KiB time=02:24:12.50 bitrate= 160.0kbits/s speed= 178x\n[STDOUT RAW] bitrate= 159.8kbits/s\n[STDOUT RAW] total_size=174850048\n[STDOUT RAW] out_time_us=8751313958\n[STDOUT RAW] out_time_ms=8751313958\n[STDOUT RAW] out_time=02:25:51.313958\n[STDOUT RAW] dup_frames=0\n[STDOUT RAW] drop_frames=0\n[STDOUT RAW] speed= 179x\n[STDOUT RAW] progress=continue\n[STDERR RAW] size=  170752KiB time=02:25:51.31 bitrate= 159.8kbits/s speed= 179x\n[STDOUT RAW] bitrate= 159.9kbits/s\n[STDOUT RAW] total_size=176685056\n[STDOUT RAW] out_time_us=8840881958\n[STDOUT RAW] out_time_ms=8840881958\n[STDOUT RAW] out_time=02:27:20.881958\n[STDOUT RAW] dup_frames=0\n[STDOUT RAW] drop_frames=0\n[STDOUT RAW] speed= 179x\n[STDOUT RAW] progress=continue\n[STDERR RAW] size=  172544KiB time=02:27:20.88 bitrate= 159.9kbits/s speed= 179x\n[STDOUT RAW] bitrate= 159.9kbits/s\n[STDOUT RAW] total_size=178520064\n[STDOUT RAW] out_time_us=8934217958\n[STDOUT RAW] out_time_ms=8934217958\n[STDOUT RAW] out_time=02:28:54.217958\n[STDOUT RAW] dup_frames=0\n[STDOUT RAW] drop_frames=0\n[STDOUT RAW] speed= 179x\n[STDOUT RAW] progress=continue\n[STDERR RAW] size=  174336KiB time=02:28:54.21 bitrate= 159.9kbits/s speed= 179x\n[STDOUT RAW] bitrate= 159.8kbits/s\n[STDOUT RAW] total_size=180355072\n[STDOUT RAW] out_time_us=9027649958\n[STDOUT RAW] out_time_ms=9027649958\n[STDOUT RAW] out_time=02:30:27.649958\n[STDOUT RAW] dup_frames=0\n[STDOUT RAW] drop_frames=0\n[STDOUT RAW] speed= 179x\n[STDOUT RAW] progress=continue\n[STDERR RAW] size=  176128KiB time=02:30:27.64 bitrate= 159.8kbits/s speed= 179x\n[STDOUT RAW] bitrate= 159.8kbits/s\n[STDOUT RAW] total_size=181927936\n[STDOUT RAW] out_time_us=9109633958\n[STDOUT RAW] out_time_ms=9109633958\n[STDOUT RAW] out_time=02:31:49.633958\n[STDOUT RAW] dup_frames=0\n[STDOUT RAW] drop_frames=0\n[STDOUT RAW] speed= 178x\n[STDOUT RAW] progress=continue\n[STDERR RAW] size=  177664KiB time=02:31:49.63 bitrate= 159.8kbits/s speed= 178x\n[STDOUT RAW] bitrate= 159.8kbits/s\n[STDOUT RAW] total_size=183762944\n[STDOUT RAW] out_time_us=9198793958\n[STDOUT RAW] out_time_ms=9198793958\n[STDOUT RAW] out_time=02:33:18.793958\n[STDOUT RAW] dup_frames=0\n[STDOUT RAW] drop_frames=0\n[STDOUT RAW] speed= 178x\n[STDOUT RAW] progress=continue\n[STDERR RAW] size=  179456KiB time=02:33:18.79 bitrate= 159.8kbits/s speed= 178x\n[STDOUT RAW] bitrate= 159.9kbits/s\n[STDOUT RAW] total_size=185860096\n[STDOUT RAW] out_time_us=9298225958\n[STDOUT RAW] out_time_ms=9298225958\n[STDOUT RAW] out_time=02:34:58.225958\n[STDOUT RAW] dup_frames=0\n[STDOUT RAW] drop_frames=0\n[STDOUT RAW] speed= 178x\n[STDOUT RAW] progress=continue\n[STDERR RAW] size=  181504KiB time=02:34:58.22 bitrate= 159.9kbits/s speed= 178x\n[STDOUT RAW] bitrate= 160.0kbits/s\n[STDOUT RAW] total_size=187957248\n[STDOUT RAW] out_time_us=9399889958\n[STDOUT RAW] out_time_ms=9399889958\n[STDOUT RAW] out_time=02:36:39.889958\n[STDOUT RAW] dup_frames=0\n[STDOUT RAW] drop_frames=0\n[STDOUT RAW] speed= 179x\n[STDOUT RAW] progress=continue\n[STDERR RAW] size=  183552KiB time=02:36:39.88 bitrate= 160.0kbits/s speed= 179x\n[STDOUT RAW] bitrate= 159.9kbits/s\n[STDOUT RAW] total_size=189792256\n[STDOUT RAW] out_time_us=9492769958\n[STDOUT RAW] out_time_ms=9492769958\n[STDOUT RAW] out_time=02:38:12.769958\n[STDOUT RAW] dup_frames=0\n[STDOUT RAW] drop_frames=0\n[STDOUT RAW] speed= 179x\n[STDOUT RAW] progress=continue\n[STDERR RAW] size=  185344KiB time=02:38:12.76 bitrate= 159.9kbits/s speed= 179x\n[STDOUT RAW] bitrate= 159.9kbits/s\n[STDOUT RAW] total_size=191627264\n[STDOUT RAW] out_time_us=9586849958\n[STDOUT RAW] out_time_ms=9586849958\n[STDOUT RAW] out_time=02:39:46.849958\n[STDOUT RAW] dup_frames=0\n[STDOUT RAW] drop_frames=0\n[STDOUT RAW] speed= 179x\n[STDOUT RAW] progress=continue\n[STDERR RAW] size=  187136KiB time=02:39:46.84 bitrate= 159.9kbits/s speed= 179x\n[STDOUT RAW] bitrate= 160.0kbits/s\n[STDOUT RAW] total_size=193462272\n[STDOUT RAW] out_time_us=9674593958\n[STDOUT RAW] out_time_ms=9674593958\n[STDOUT RAW] out_time=02:41:14.593958\n[STDOUT RAW] dup_frames=0\n[STDOUT RAW] drop_frames=0\n[STDOUT RAW] speed= 179x\n[STDOUT RAW] progress=continue\n[STDERR RAW] size=  188928KiB time=02:41:14.59 bitrate= 160.0kbits/s speed= 179x\n[STDOUT RAW] bitrate= 159.9kbits/s\n[STDOUT RAW] total_size=195035136\n[STDOUT RAW] out_time_us=9756769958\n[STDOUT RAW] out_time_ms=9756769958\n[STDOUT RAW] out_time=02:42:36.769958\n[STDOUT RAW] dup_frames=0\n[STDOUT RAW] drop_frames=0\n[STDOUT RAW] speed= 178x\n[STDOUT RAW] progress=continue\n[STDERR RAW] size=  190464KiB time=02:42:36.76 bitrate= 159.9kbits/s speed= 178x\n[STDOUT RAW] bitrate= 159.8kbits/s\n[STDOUT RAW] total_size=196608000\n[STDOUT RAW] out_time_us=9840673958\n[STDOUT RAW] out_time_ms=9840673958\n[STDOUT RAW] out_time=02:44:00.673958\n[STDOUT RAW] dup_frames=0\n[STDOUT RAW] drop_frames=0\n[STDOUT RAW] speed= 178x\n[STDOUT RAW] progress=continue\n[STDERR RAW] size=  192000KiB time=02:44:00.67 bitrate= 159.8kbits/s speed= 178x\n[STDOUT RAW] bitrate= 159.8kbits/s\n[STDOUT RAW] total_size=198180864\n[STDOUT RAW] out_time_us=9918529958\n[STDOUT RAW] out_time_ms=9918529958\n[STDOUT RAW] out_time=02:45:18.529958\n[STDOUT RAW] dup_frames=0\n[STDOUT RAW] drop_frames=0\n[STDOUT RAW] speed= 178x\n[STDOUT RAW] progress=continue\n[STDERR RAW] size=  193536KiB time=02:45:18.52 bitrate= 159.8kbits/s speed= 178x\n[STDOUT RAW] bitrate= 159.9kbits/s\n[STDOUT RAW] total_size=199753728\n[STDOUT RAW] out_time_us=9995953958\n[STDOUT RAW] out_time_ms=9995953958\n[STDOUT RAW] out_time=02:46:35.953958\n[STDOUT RAW] dup_frames=0\n[STDOUT RAW] drop_frames=0\n[STDOUT RAW] speed= 178x\n[STDOUT RAW] progress=continue\n[STDERR RAW] size=  195072KiB time=02:46:35.95 bitrate= 159.9kbits/s speed= 178x\n[STDOUT RAW] bitrate= 159.8kbits/s\n[STDOUT RAW] total_size=201326592\n[STDOUT RAW] out_time_us=10078345958\n[STDOUT RAW] out_time_ms=10078345958\n[STDOUT RAW] out_time=02:47:58.345958\n[STDOUT RAW] dup_frames=0\n[STDOUT RAW] drop_frames=0\n[STDOUT RAW] speed= 178x\n[STDOUT RAW] progress=continue\n[STDERR RAW] size=  196608KiB time=02:47:58.34 bitrate= 159.8kbits/s speed= 178x\n[STDOUT RAW] bitrate= 159.9kbits/s\n[STDOUT RAW] total_size=203161600\n[STDOUT RAW] out_time_us=10162249958\n[STDOUT RAW] out_time_ms=10162249958\n[STDOUT RAW] out_time=02:49:22.249958\n[STDOUT RAW] dup_frames=0\n[STDOUT RAW] drop_frames=0\n[STDOUT RAW] speed= 177x\n[STDOUT RAW] progress=continue\n[STDERR RAW] size=  198400KiB time=02:49:22.24 bitrate= 159.9kbits/s speed= 177x\n[STDOUT RAW] bitrate= 159.8kbits/s\n[STDOUT RAW] total_size=204996608\n[STDOUT RAW] out_time_us=10262929958\n[STDOUT RAW] out_time_ms=10262929958\n[STDOUT RAW] out_time=02:51:02.929958\n[STDOUT RAW] dup_frames=0\n[STDOUT RAW] drop_frames=0\n[STDOUT RAW] speed= 178x\n[STDOUT RAW] progress=continue\n[STDERR RAW] size=  200192KiB time=02:51:02.92 bitrate= 159.8kbits/s speed= 178x\n[STDOUT RAW] bitrate= 159.9kbits/s\n[STDOUT RAW] total_size=206831616\n[STDOUT RAW] out_time_us=10347865958\n[STDOUT RAW] out_time_ms=10347865958\n[STDOUT RAW] out_time=02:52:27.865958\n[STDOUT RAW] dup_frames=0\n[STDOUT RAW] drop_frames=0\n[STDOUT RAW] speed= 178x\n[STDOUT RAW] progress=continue\n[STDERR RAW] size=  201984KiB time=02:52:27.86 bitrate= 159.9kbits/s speed= 178x\n[STDOUT RAW] bitrate= 160.0kbits/s\n[STDOUT RAW] total_size=208666624\n[STDOUT RAW] out_time_us=10434457958\n[STDOUT RAW] out_time_ms=10434457958\n[STDOUT RAW] out_time=02:53:54.457958\n[STDOUT RAW] dup_frames=0\n[STDOUT RAW] drop_frames=0\n[STDOUT RAW] speed= 177x\n[STDOUT RAW] progress=continue\n[STDERR RAW] size=  203776KiB time=02:53:54.45 bitrate= 160.0kbits/s speed= 177x\n[STDOUT RAW] bitrate= 159.9kbits/s\n[STDOUT RAW] total_size=210239488\n[STDOUT RAW] out_time_us=10518265958\n[STDOUT RAW] out_time_ms=10518265958\n[STDOUT RAW] out_time=02:55:18.265958\n[STDOUT RAW] dup_frames=0\n[STDOUT RAW] drop_frames=0\n[STDOUT RAW] speed= 177x\n[STDOUT RAW] progress=continue\n[STDERR RAW] size=  205312KiB time=02:55:18.26 bitrate= 159.9kbits/s speed= 177x\n[STDOUT RAW] bitrate= 159.8kbits/s\n[STDOUT RAW] total_size=212074496\n[STDOUT RAW] out_time_us=10616017958\n[STDOUT RAW] out_time_ms=10616017958\n[STDOUT RAW] out_time=02:56:56.017958\n[STDOUT RAW] dup_frames=0\n[STDOUT RAW] drop_frames=0\n[STDOUT RAW] speed= 177x\n[STDOUT RAW] progress=continue\n[STDERR RAW] size=  207104KiB time=02:56:56.01 bitrate= 159.8kbits/s speed= 177x\n[STDOUT RAW] bitrate= 159.8kbits/s\n[STDOUT RAW] total_size=213647360\n[STDOUT RAW] out_time_us=10695601958\n[STDOUT RAW] out_time_ms=10695601958\n[STDOUT RAW] out_time=02:58:15.601958\n[STDOUT RAW] dup_frames=0\n[STDOUT RAW] drop_frames=0\n[STDOUT RAW] speed= 177x\n[STDOUT RAW] progress=continue\n[STDERR RAW] size=  208640KiB time=02:58:15.60 bitrate= 159.8kbits/s speed= 177x\n[STDOUT RAW] bitrate= 160.0kbits/s\n[STDOUT RAW] total_size=215744512\n[STDOUT RAW] out_time_us=10788481958\n[STDOUT RAW] out_time_ms=10788481958\n[STDOUT RAW] out_time=02:59:48.481958\n[STDOUT RAW] dup_frames=0\n[STDOUT RAW] drop_frames=0\n[STDOUT RAW] speed= 177x\n[STDOUT RAW] progress=continue\n[STDERR RAW] size=  210688KiB time=02:59:48.48 bitrate= 160.0kbits/s speed= 177x\n[STDOUT RAW] bitrate= 159.8kbits/s\n[STDOUT RAW] total_size=217317376\n[STDOUT RAW] out_time_us=10879105958\n[STDOUT RAW] out_time_ms=10879105958\n[STDOUT RAW] out_time=03:01:19.105958\n[STDOUT RAW] dup_frames=0\n[STDOUT RAW] drop_frames=0\n[STDOUT RAW] speed= 177x\n[STDOUT RAW] progress=continue\n[STDERR RAW] size=  212224KiB time=03:01:19.10 bitrate= 159.8kbits/s speed= 177x\n[STDOUT RAW] bitrate= 159.9kbits/s\n[STDOUT RAW] total_size=219152384\n[STDOUT RAW] out_time_us=10967785958\n[STDOUT RAW] out_time_ms=10967785958\n[STDOUT RAW] out_time=03:02:47.785958\n[STDOUT RAW] dup_frames=0\n[STDOUT RAW] drop_frames=0\n[STDOUT RAW] speed= 177x\n[STDOUT RAW] progress=continue\n[STDERR RAW] size=  214016KiB time=03:02:47.78 bitrate= 159.9kbits/s speed= 177x\n[STDOUT RAW] bitrate= 160.0kbits/s\n[STDOUT RAW] total_size=221249536\n[STDOUT RAW] out_time_us=11063353958\n[STDOUT RAW] out_time_ms=11063353958\n[STDOUT RAW] out_time=03:04:23.353958\n[STDOUT RAW] dup_frames=0\n[STDOUT RAW] drop_frames=0\n[STDOUT RAW] speed= 177x\n[STDOUT RAW] progress=continue\n[STDERR RAW] size=  216064KiB time=03:04:23.35 bitrate= 160.0kbits/s speed= 177x\n[STDOUT RAW] bitrate= 159.9kbits/s\n[STDOUT RAW] total_size=223084544\n[STDOUT RAW] out_time_us=11158081958\n[STDOUT RAW] out_time_ms=11158081958\n[STDOUT RAW] out_time=03:05:58.081958\n[STDOUT RAW] dup_frames=0\n[STDOUT RAW] drop_frames=0\n[STDOUT RAW] speed= 177x\n[STDOUT RAW] progress=continue\n[STDERR RAW] size=  217856KiB time=03:05:58.08 bitrate= 159.9kbits/s speed= 177x\n[STDOUT RAW] bitrate= 159.8kbits/s\n[STDOUT RAW] total_size=224919552\n[STDOUT RAW] out_time_us=11256577958\n[STDOUT RAW] out_time_ms=11256577958\n[STDOUT RAW] out_time=03:07:36.577958\n[STDOUT RAW] dup_frames=0\n[STDOUT RAW] drop_frames=0\n[STDOUT RAW] speed= 177x\n[STDOUT RAW] progress=continue\n[STDERR RAW] size=  219648KiB time=03:07:36.57 bitrate= 159.8kbits/s speed= 177x\n[STDOUT RAW] bitrate= 160.0kbits/s\n[STDOUT RAW] total_size=227016704\n[STDOUT RAW] out_time_us=11352577958\n[STDOUT RAW] out_time_ms=11352577958\n[STDOUT RAW] out_time=03:09:12.577958\n[STDOUT RAW] dup_frames=0\n[STDOUT RAW] drop_frames=0\n[STDOUT RAW] speed= 177x\n[STDOUT RAW] progress=continue\n[STDERR RAW] size=  221696KiB time=03:09:12.57 bitrate= 160.0kbits/s speed= 177x\n[STDOUT RAW] bitrate= 159.9kbits/s\n[STDOUT RAW] total_size=228851712\n[STDOUT RAW] out_time_us=11450977958\n[STDOUT RAW] out_time_ms=11450977958\n[STDOUT RAW] out_time=03:10:50.977958\n[STDOUT RAW] dup_frames=0\n[STDOUT RAW] drop_frames=0\n[STDOUT RAW] speed= 178x\n[STDOUT RAW] progress=continue\n[STDERR RAW] size=  223488KiB time=03:10:50.97 bitrate= 159.9kbits/s speed= 178x\n[STDOUT RAW] bitrate= 159.8kbits/s\n[STDOUT RAW] total_size=230686720\n[STDOUT RAW] out_time_us=11547577958\n[STDOUT RAW] out_time_ms=11547577958\n[STDOUT RAW] out_time=03:12:27.577958\n[STDOUT RAW] dup_frames=0\n[STDOUT RAW] drop_frames=0\n[STDOUT RAW] speed= 178x\n[STDOUT RAW] progress=continue\n[STDERR RAW] size=  225280KiB time=03:12:27.57 bitrate= 159.8kbits/s speed= 178x\n[STDOUT RAW] bitrate= 159.8kbits/s\n[STDOUT RAW] total_size=232521728\n[STDOUT RAW] out_time_us=11639329958\n[STDOUT RAW] out_time_ms=11639329958\n[STDOUT RAW] out_time=03:13:59.329958\n[STDOUT RAW] dup_frames=0\n[STDOUT RAW] drop_frames=0\n[STDOUT RAW] speed= 178x\n[STDOUT RAW] progress=continue\n[STDERR RAW] size=  227072KiB time=03:13:59.32 bitrate= 159.8kbits/s speed= 178x\n[STDOUT RAW] bitrate= 159.8kbits/s\n[STDOUT RAW] total_size=234356736\n[STDOUT RAW] out_time_us=11731081958\n[STDOUT RAW] out_time_ms=11731081958\n[STDOUT RAW] out_time=03:15:31.081958\n[STDOUT RAW] dup_frames=0\n[STDOUT RAW] drop_frames=0\n[STDOUT RAW] speed= 178x\n[STDOUT RAW] progress=continue\n[STDERR RAW] size=  228864KiB time=03:15:31.08 bitrate= 159.8kbits/s speed= 178x\n[STDOUT RAW] bitrate= 159.9kbits/s\n[STDOUT RAW] total_size=236453888\n[STDOUT RAW] out_time_us=11829409958\n[STDOUT RAW] out_time_ms=11829409958\n[STDOUT RAW] out_time=03:17:09.409958\n[STDOUT RAW] dup_frames=0\n[STDOUT RAW] drop_frames=0\n[STDOUT RAW] speed= 178x\n[STDOUT RAW] progress=continue\n[STDERR RAW] size=  230912KiB time=03:17:09.40 bitrate= 159.9kbits/s speed= 178x\n[STDOUT RAW] bitrate= 159.8kbits/s\n[STDOUT RAW] total_size=238288896\n[STDOUT RAW] out_time_us=11927689958\n[STDOUT RAW] out_time_ms=11927689958\n[STDOUT RAW] out_time=03:18:47.689958\n[STDOUT RAW] dup_frames=0\n[STDOUT RAW] drop_frames=0\n[STDOUT RAW] speed= 178x\n[STDOUT RAW] progress=continue\n[STDERR RAW] size=  232704KiB time=03:18:47.68 bitrate= 159.8kbits/s speed= 178x\n[STDOUT RAW] bitrate= 159.9kbits/s\n[STDOUT RAW] total_size=240386048\n[STDOUT RAW] out_time_us=12027865958\n[STDOUT RAW] out_time_ms=12027865958\n[STDOUT RAW] out_time=03:20:27.865958\n[STDOUT RAW] dup_frames=0\n[STDOUT RAW] drop_frames=0\n[STDOUT RAW] speed= 178x\n[STDOUT RAW] progress=continue\n[STDOUT RAW] bitrate= 159.8kbits/s\n[STDERR RAW] size=  234752KiB time=03:20:27.86 bitrate= 159.9kbits/s speed= 178x\n[STDOUT RAW] total_size=242221056\n[STDOUT RAW] out_time_us=12122425958\n[STDOUT RAW] out_time_ms=12122425958\n[STDOUT RAW] out_time=03:22:02.425958\n[STDOUT RAW] dup_frames=0\n[STDOUT RAW] drop_frames=0\n[STDOUT RAW] speed= 178x\n[STDOUT RAW] progress=continue\n[STDERR RAW] size=  236544KiB time=03:22:02.42 bitrate= 159.8kbits/s speed= 178x\n[STDOUT RAW] bitrate= 160.0kbits/s\n[STDOUT RAW] total_size=244318208\n[STDOUT RAW] out_time_us=12218233958\n[STDOUT RAW] out_time_ms=12218233958\n[STDOUT RAW] out_time=03:23:38.233958\n[STDOUT RAW] dup_frames=0\n[STDOUT RAW] drop_frames=0\n[STDOUT RAW] speed= 178x\n[STDOUT RAW] progress=continue\n[STDERR RAW] size=  238592KiB time=03:23:38.23 bitrate= 160.0kbits/s speed= 178x\n[STDOUT RAW] bitrate= 160.0kbits/s\n[STDERR RAW] size=  240218KiB time=03:24:59.04 bitrate= 160.0kbits/s speed= 178x\n[STDOUT RAW] total_size=245982764\n[STDOUT RAW] out_time_us=12299048000\n[STDOUT RAW] out_time_ms=12299048000\n[STDOUT RAW] out_time=03:24:59.048000\n[STDOUT RAW] dup_frames=0\n[STDOUT RAW] drop_frames=0\n[STDOUT RAW] speed= 178x\n[STDOUT RAW] progress=end\n[ConversionWorker] STDERR pipe closed signal received.\n[ConversionWorker] Detected 'progress=end' for 引入02.wav\n[ConversionWorker] STDOUT pipe closed signal received.\n[ConversionWorker] Process finished and both stream pipes closed. Exiting loop.\n[ConversionWorker] Waiting for reader threads to join...\n[ConversionWorker] FFmpeg process ended. Return code: 0\n[ConversionWorker] Closing FFmpeg log file.\n